{
	"asset":{
		"version":"2.0",
		"generator":"Houdini GLTF 2.0 Exporter"
	},
	"accessors":[
		{
			"bufferView":0,
			"componentType":5125,
			"count":1909470,
			"type":"SCALAR",
			"min":[0
			],
			"max":[375815
			]
		},
		{
			"bufferView":1,
			"componentType":5126,
			"count":375816,
			"type":"VEC3",
			"min":[-0.906111777,25.6360664,-0.744499087
			],
			"max":[86.9857407,29.6339474,28.6321182
			]
		},
		{
			"bufferView":2,
			"componentType":5126,
			"count":375816,
			"type":"MAT4",
			"min":[0.00999999978,0,0,0,0,-2.220446e-18,-0.00999999978,0,0,0,-2.220446e-18,0,-0.84321183,-2.41759574e-31,-0.681599021,1
			],
			"max":[1,0,0,0,0,1,0,0,0,0.00999999978,1,0,89.7551727,29.4699116,28.5692177,1
			]
		},
		{
			"bufferView":3,
			"componentType":5126,
			"count":375816,
			"type":"VEC4",
			"min":[-1,-1,-1,1
			],
			"max":[1,1,1,1
			]
		},
		{
			"bufferView":4,
			"componentType":5126,
			"count":375816,
			"type":"VEC2",
			"min":[0,-17875.0234
			],
			"max":[17972.7012,1
			]
		},
		{
			"bufferView":5,
			"componentType":5126,
			"count":375816,
			"type":"VEC3",
			"min":[-1,-1,-1
			],
			"max":[1,1,1
			]
		},
		{
			"bufferView":6,
			"componentType":5121,
			"count":375816,
			"type":"SCALAR",
			"min":[0
			],
			"max":[0
			]
		},
		{
			"bufferView":7,
			"componentType":5126,
			"count":375816,
			"type":"VEC3",
			"min":[0.270588249,0.305882365,0.250980407
			],
			"max":[1,1,1
			]
		}
	],
	"buffers":[
		{
			"uri":"46ad14df-85fd-41dc-b1b4-0a7baf1b5412-003cf5ca1_data.bin",
			"byteLength":54614880,
			"name":"main_buffer"
		}
	],
	"bufferViews":[
		{
			"buffer":0,
			"byteLength":7637880,
			"target":34963
		},
		{
			"buffer":0,
			"byteOffset":7637880,
			"byteLength":4509792,
			"target":34962
		},
		{
			"buffer":0,
			"byteOffset":12147672,
			"byteLength":24052224,
			"target":34962
		},
		{
			"buffer":0,
			"byteOffset":36199896,
			"byteLength":6013056,
			"target":34962
		},
		{
			"buffer":0,
			"byteOffset":42212952,
			"byteLength":3006528,
			"target":34962
		},
		{
			"buffer":0,
			"byteOffset":45219480,
			"byteLength":4509792,
			"target":34962
		},
		{
			"buffer":0,
			"byteOffset":49729272,
			"byteLength":375816,
			"target":34962
		},
		{
			"buffer":0,
			"byteOffset":50105088,
			"byteLength":4509792,
			"target":34962
		}
	],
	"nodes":[
		{
			"name":"sopnet4",
			"mesh":0
		}
	],
	"meshes":[
		{
			"primitives":[
				{
					"attributes":{
						"COLOR_0":7,
						"NORMAL":5,
						"_doNotCastShadows":6,
						"TEXCOORD_0":4,
						"TANGENT":3,
						"_usdxform":2,
						"POSITION":1
					},
					"indices":0
				}
			],
			"name":"uvunwrap1"
		}
	],
	"scenes":[
		{
			"nodes":[0
			]
		}
	],
	"scene":0
}
