{
	"asset":{
		"version":"2.0",
		"generator":"Houdini GLTF 2.0 Exporter"
	},
	"accessors":[
		{
			"bufferView":0,
			"componentType":5125,
			"count":2310090,
			"type":"SCALAR",
			"min":[0
			],
			"max":[550670
			]
		},
		{
			"bufferView":1,
			"componentType":5126,
			"count":550671,
			"type":"VEC3",
			"min":[-0.906111777,25.6360664,9.21596336
			],
			"max":[84.679512,29.6339474,28.6321182
			]
		},
		{
			"bufferView":2,
			"componentType":5126,
			"count":550671,
			"type":"MAT4",
			"min":[0.00999999978,0,0,0,0,-2.220446e-18,-0.00999999978,0,0,0,-2.220446e-18,0,-0.84321183,-2.41759574e-31,-1.08878833e-15,1
			],
			"max":[1,0,0,0,0,1,0,0,0,0.00999999978,1,0,84.574234,29.461298,28.5692177,1
			]
		},
		{
			"bufferView":3,
			"componentType":5126,
			"count":550671,
			"type":"VEC4",
			"min":[-1,-1,-1,1
			],
			"max":[1,1,1,1
			]
		},
		{
			"bufferView":4,
			"componentType":5126,
			"count":550671,
			"type":"VEC3",
			"min":[-1,-1,-1
			],
			"max":[1,1,1
			]
		},
		{
			"bufferView":5,
			"componentType":5126,
			"count":550671,
			"type":"VEC2",
			"min":[0,-12791.2207
			],
			"max":[12792.3203,1
			]
		},
		{
			"bufferView":6,
			"componentType":5126,
			"count":550671,
			"type":"VEC3",
			"min":[0.270588249,0.305882365,0.250980407
			],
			"max":[1,1,1
			]
		},
		{
			"bufferView":7,
			"componentType":5121,
			"count":550671,
			"type":"SCALAR",
			"min":[0
			],
			"max":[0
			]
		}
	],
	"buffers":[
		{
			"uri":"8687c004-ed75-4c67-aaba-0bf99272a35c-003e56cb_data.bin",
			"byteLength":78074235,
			"name":"main_buffer"
		}
	],
	"bufferViews":[
		{
			"buffer":0,
			"byteLength":9240360,
			"target":34963
		},
		{
			"buffer":0,
			"byteOffset":9240360,
			"byteLength":6608052,
			"target":34962
		},
		{
			"buffer":0,
			"byteOffset":15848412,
			"byteLength":35242944,
			"target":34962
		},
		{
			"buffer":0,
			"byteOffset":51091356,
			"byteLength":8810736,
			"target":34962
		},
		{
			"buffer":0,
			"byteOffset":59902092,
			"byteLength":6608052,
			"target":34962
		},
		{
			"buffer":0,
			"byteOffset":66510144,
			"byteLength":4405368,
			"target":34962
		},
		{
			"buffer":0,
			"byteOffset":70915512,
			"byteLength":6608052,
			"target":34962
		},
		{
			"buffer":0,
			"byteOffset":77523564,
			"byteLength":550671,
			"target":34962
		}
	],
	"nodes":[
		{
			"name":"sopnet4",
			"mesh":0
		}
	],
	"meshes":[
		{
			"primitives":[
				{
					"attributes":{
						"COLOR_0":6,
						"TEXCOORD_0":5,
						"TANGENT":3,
						"POSITION":1,
						"_usdxform":2,
						"NORMAL":4,
						"_doNotCastShadows":7
					},
					"indices":0
				}
			],
			"name":"uvunwrap1"
		}
	],
	"scenes":[
		{
			"nodes":[0
			]
		}
	],
	"scene":0
}
